<svg xmlns="http://www.w3.org/2000/svg" viewBox="0 0 64 64">
  <rect width="64" height="64" rx="12" fill="#F4F6F0"/>
  <path fill="#4D6D5A" d="M48 31a12 12 0 0 0-8-11.3V19a12 12 0 0 0-22.1-6.6A12 12 0 0 0 8 24v.7a12 12 0 0 0 0 22.6V48a12 12 0 0 0 22.1 6.6A12 12 0 0 0 52 48v-.7A12 12 0 0 0 48 31ZM20 54a8 8 0 0 1-7.9-7.1c.6.1 1.3.1 1.9.1h2a2 2 0 0 0 0-4h-2a10 10 0 0 1-3.3-19.4A2 2 0 0 0 12 21.8V20a8 8 0 0 1 16 0v17.1A12 12 0 0 0 20 34a2 2 0 0 0 0 4 8 8 0 0 1 0 16Zm30-11h-2a2 2 0 0 0 0 4h2c.7 0 1.3 0 1.9-.1A8 8 0 1 1 44 38a2 2 0 0 0 0-4 12 12 0 0 0-8 3.1V20a8 8 0 0 1 16 0v1.8a2 2 0 0 0 1.3 1.8A10 10 0 0 1 50 43Z"/>
</svg>
